<?xml version="1.0" encoding="utf-8"?>
<!-- Generator: Adobe Illustrator 25.4.1, SVG Export Plug-In . SVG Version: 6.00 Build 0)  -->
<svg version="1.0" id="Layer_1" xmlns="http://www.w3.org/2000/svg" xmlns:xlink="http://www.w3.org/1999/xlink" x="0px" y="0px"
	 viewBox="0 0 755.52 575.11" enable-background="new 0 0 755.52 575.11" xml:space="preserve">
<g>
	<text transform="matrix(1 0 0 1 37.9593 530.4448)" fill="#FFFFFF" font-family="'Montserrat-Light'" font-size="41.101px">Digital Marketing &amp; Procurement</text>
	<g>
		<g>
			<path fill="#AFD356" d="M216.86,342.2v-86.83c0,0,5.51-81.77-89.58-81.77s-89.24,89.24-89.24,89.24s-6.38,93.11,93.11,93.11
				c0,0,18.95-1.18,18.95-18.95s-17.31-17.31-17.31-17.31s-54.67-4.59-54.67-50.53s29.72-53.75,49.32-53.75s49.91,10.11,49.91,43.18
				s0,75.34,0,75.34s-2.76,22.02,19.75,22.02S216.86,342.2,216.86,342.2z"/>
			<path fill="#E34573" d="M256.99,336.13L256.99,336.13c0,10.95,8.87,19.82,19.82,19.82h5.74c10.95,0,19.82-8.87,19.82-19.82
				v-89.72c0-17,13.78-30.78,30.78-30.78h0h1.67c18.67,0,33.8,15.13,33.8,33.8v86.69c0,10.95,8.87,19.82,19.82,19.82h3.65
				c10.95,0,19.82-8.87,19.82-19.82v-88.34c0-17.76,14.4-32.15,32.15-32.15h0c16.52,0,29.92,13.4,29.92,29.92v90.58
				c0,10.95,8.87,19.82,19.82,19.82h3.65c10.95,0,19.82-8.87,19.82-19.82v-98.99c0-35.09-28.45-63.54-63.54-63.54l-7.49-0.05
				c-17.35-0.12-34.13,6.17-47.14,17.65l-11.98,10.57l-7.12-7.19c-13.15-13.28-31.03-20.8-49.72-20.91l-11.78-0.07
				c-33.97,0-61.52,27.54-61.52,61.52V336.13z"/>
			<path fill="#00B8B3" d="M639.78,170.48c-13.48-0.23-26.19,3.21-37.29,9.36V55.14c0-11.33-9.19-20.52-20.52-20.52
				s-20.52,9.19-20.52,20.52v194.39v32.38v53.53c0,11.33,9.19,20.52,20.52,20.52s20.52-9.19,20.52-20.52v-53.53v-34.42
				c0-20.66,17.5-37.31,38.45-35.9c19.1,1.28,33.52,18.03,33.52,37.17v86.68c0,11.33,9.19,20.52,20.52,20.52s20.52-9.19,20.52-20.52
				v-87.95C715.49,205.46,681.65,171.19,639.78,170.48z"/>
		</g>
		<text transform="matrix(1 0 0 1 37.9593 463.2495)" fill="#FFFFFF" font-family="'Montserrat-Regular'" font-size="78.0128px">Communications</text>
	</g>
</g>
</svg>
